<svg xmlns="http://www.w3.org/2000/svg" viewBox="0 0 182 272"><defs><style>.cls-1{fill:#97e4ff;}.cls-2{opacity:0.83;}.cls-3,.cls-4,.cls-5{fill:#fff;}.cls-3{opacity:0.34;}.cls-4{opacity:0.18;}.cls-5{fill-rule:evenodd;opacity:0.25;}</style></defs><title>資產 2</title><g id="圖層_2" data-name="圖層 2"><g id="DESIGNED_BY_FREEPIK" data-name="DESIGNED BY FREEPIK"><path class="cls-1" d="M182,0V272H24.69A24.7,24.7,0,0,1,0,247.31V24.69A24.7,24.7,0,0,1,24.69,0Z"/><g class="cls-2"><path class="cls-3" d="M182,225.78V272H24.69A24.7,24.7,0,0,1,0,247.31V233.08c39-22.41,76.68-57.1,137.11-23.32C153.28,218.79,168.13,223.7,182,225.78Z"/><path class="cls-3" d="M182,259.58V272H24.69A24.7,24.7,0,0,1,0,247.31V194c29.6-10.89,66.69-15.5,145.6,45.93C158.56,250.05,170.63,256.27,182,259.58Z"/><path class="cls-4" d="M182,182v90H24.69A24.7,24.7,0,0,1,0,247.31V224.69C68.43,229.06,119.08,180.77,182,182Z"/></g><path class="cls-5" d="M0,24.69V50.26C25,31.48,59.64,20.25,107,30c32.57,6.71,56.86,5.14,75-1.1V0H24.69A24.7,24.7,0,0,0,0,24.69Z"/></g></g></svg>